<?xml version="1.0" standalone="no"?>
<!DOCTYPE svg PUBLIC "-//W3C//DTD SVG 20010904//EN"
 "http://www.w3.org/TR/2001/REC-SVG-20010904/DTD/svg10.dtd">
<svg version="1.0" xmlns="http://www.w3.org/2000/svg"
 width="200.000000pt" height="200.000000pt" viewBox="0 0 200.000000 200.000000"
 preserveAspectRatio="xMidYMid meet">
<metadata>
Created by potrace 1.14, written by Peter Selinger 2001-2017
</metadata>
<g transform="translate(0.000000,200.000000) scale(0.100000,-0.100000)"
fill="#000000" stroke="none">
<path d="M1671 1978 c6 -11 8 -22 5 -26 -3 -3 -6 1 -6 8 0 7 -3 10 -7 7 -3 -4
2 -15 11 -26 11 -12 14 -21 7 -26 -6 -3 -11 -1 -11 6 0 7 -3 9 -6 6 -4 -4 -1
-13 6 -22 7 -8 8 -15 3 -15 -10 0 -10 -46 0 -57 15 -14 6 -23 -13 -13 -14 7
-20 7 -20 0 0 -5 -7 -10 -15 -10 -18 0 -19 11 -2 30 10 12 9 12 -4 2 -12 -9
-18 -9 -29 1 -7 6 -5 0 5 -15 9 -15 14 -31 11 -36 -3 -5 -1 -24 5 -43 6 -19
11 -43 13 -55 4 -27 34 -163 53 -239 9 -33 16 -68 16 -77 1 -10 5 -18 10 -18
5 0 7 -7 3 -15 -4 -11 2 -15 20 -15 16 0 23 4 18 12 -4 7 -3 8 5 4 7 -4 10
-13 8 -19 -5 -16 31 -47 54 -47 9 0 20 6 23 13 4 8 8 9 11 1 4 -8 18 -9 43 -3
28 6 41 4 52 -6 10 -10 11 -15 2 -15 -7 0 -12 5 -12 11 0 5 -5 7 -10 4 -17
-10 12 -30 45 -31 17 -1 24 1 18 3 -7 3 -13 11 -13 19 0 8 6 14 13 14 9 0 8 3
-2 9 -10 7 -11 13 -1 32 9 16 14 116 17 346 l5 324 -171 -1 c-168 -2 -171 -2
-160 -22z"/>
<path d="M1169 1985 c-1 -3 -2 -8 -3 -12 -1 -5 -5 -13 -9 -19 -4 -7 2 -14 14
-17 12 -3 18 -10 15 -16 -5 -7 -16 -6 -34 1 -37 16 -36 16 -22 33 10 12 10 15
-4 15 -9 0 -16 -5 -16 -11 0 -6 -9 -8 -22 -3 -39 13 -138 1 -138 -17 0 -5 11
-9 25 -9 16 0 25 -6 25 -16 0 -12 -4 -14 -12 -7 -25 19 -48 23 -48 8 0 -8 6
-15 13 -15 7 0 14 -10 14 -22 1 -13 -1 -18 -5 -11 -4 6 -20 17 -35 22 -18 7
-26 7 -22 1 3 -6 1 -10 -4 -10 -6 0 -11 -7 -11 -15 0 -8 -7 -15 -16 -15 -14 0
-14 -3 -4 -15 17 -21 0 -18 -27 4 -34 28 -30 51 7 47 26 -3 28 -1 19 15 -14
27 -47 43 -63 30 -7 -6 -15 -9 -18 -6 -3 3 -18 -1 -33 -9 -16 -8 -32 -13 -37
-10 -4 3 -17 -4 -29 -15 -16 -14 -20 -27 -16 -48 4 -24 4 -25 -8 -10 -14 19
-35 23 -35 6 0 -7 -10 -9 -25 -5 -14 4 -25 2 -25 -4 0 -5 -7 -10 -16 -10 -14
0 -14 -2 0 -22 21 -29 21 -121 2 -137 -8 -7 -23 -29 -34 -49 -10 -20 -27 -53
-37 -72 -26 -48 -32 -134 -12 -155 9 -9 21 -32 27 -53 10 -35 9 -38 -26 -70
-33 -30 -38 -31 -54 -17 -18 16 -34 20 -26 6 4 -5 2 -21 -4 -35 -8 -23 -7 -26
13 -28 12 -1 31 -3 42 -4 11 -1 26 -2 33 -3 14 -1 18 -161 3 -161 -4 0 -6 11
-4 24 3 13 -1 34 -8 47 -13 23 -13 22 -20 -23 -9 -60 -64 -206 -90 -237 -23
-28 -86 -38 -139 -23 -35 10 -35 10 15 10 45 -1 52 3 82 37 33 38 73 129 73
165 0 30 -19 34 -26 5 -3 -13 -9 -23 -13 -21 -3 2 -7 -10 -8 -28 -1 -17 -14
-56 -30 -86 l-28 -55 -53 2 c-28 1 -63 8 -77 16 l-26 13 21 27 c23 28 58 35
78 15 7 -7 12 -8 12 -2 0 5 -5 15 -12 22 -9 9 -6 18 13 38 23 25 23 26 2 15
-30 -15 -28 -16 -43 29 -18 53 -43 77 -28 26 12 -38 5 -57 -13 -39 -6 6 -17 9
-25 6 -7 -2 -30 7 -51 21 -47 32 -64 34 -35 3 24 -25 28 -47 12 -63 -6 -6 -12
-29 -14 -52 -2 -23 -8 -47 -13 -54 -5 -7 -8 -26 -7 -43 0 -16 -5 -40 -12 -52
-12 -19 -12 -22 1 -17 18 7 18 4 4 -33 -6 -15 -11 -40 -11 -55 0 -15 -4 -30
-9 -33 -5 -4 -9 -28 -9 -54 0 -41 3 -47 20 -46 31 2 75 48 104 108 14 31 29
58 34 61 13 8 61 -6 58 -18 -2 -6 -1 -8 1 -3 7 10 36 8 53 -4 13 -10 13 -10 0
-6 -11 3 -15 -4 -16 -26 -2 -43 -64 -92 -115 -91 -23 1 -33 -4 -36 -17 -3 -10
-27 -32 -54 -49 -45 -27 -49 -33 -49 -67 l0 -38 29 35 c28 34 61 55 130 81 61
23 174 104 255 182 44 42 85 77 91 77 7 0 32 15 55 33 l43 33 36 -18 c43 -22
76 -22 160 -3 70 17 146 65 155 99 3 11 6 46 6 76 0 93 18 123 60 100 26 -14
112 -139 104 -152 -4 -7 -2 -8 5 -4 7 5 24 -4 42 -23 28 -30 37 -55 22 -64 -5
-2 -3 -3 3 -1 6 1 16 -2 22 -8 6 -6 12 -6 16 1 4 6 2 11 -5 11 -18 0 3 21 23
24 8 1 23 9 32 19 16 16 16 17 -5 15 -12 -2 -24 3 -26 12 -4 13 -3 13 6 0 6
-8 11 -10 11 -4 0 6 21 14 48 17 26 4 58 9 72 13 24 6 24 6 6 -8 -17 -14 -15
-15 26 -14 34 1 44 4 40 15 -3 9 0 12 9 9 8 -3 14 -15 13 -27 0 -15 4 -20 14
-16 10 3 12 0 9 -10 -4 -8 -2 -17 4 -21 6 -4 5 -12 -3 -22 -10 -12 -10 -14 -1
-8 10 5 11 1 3 -18 -5 -14 -6 -26 -1 -26 12 0 20 -49 9 -52 -5 -2 -11 -19 -13
-37 -3 -19 -10 -38 -16 -42 -8 -4 -6 -10 6 -16 15 -9 15 -11 1 -16 -9 -4 -13
-13 -10 -22 4 -8 -1 -17 -10 -21 -9 -3 -16 -9 -16 -13 0 -12 34 -9 42 3 4 6 8
-4 8 -21 0 -18 -5 -33 -11 -33 -5 0 -8 4 -4 9 3 5 1 12 -5 16 -11 7 -25 -39
-15 -54 3 -6 2 -11 -3 -11 -5 0 -12 9 -15 20 -3 11 -13 20 -23 20 -14 0 -15
-3 -6 -12 15 -15 16 -72 1 -63 -6 4 -13 -2 -16 -13 -3 -11 -10 -19 -17 -16 -6
2 -17 -5 -24 -17 -8 -12 -9 -18 -3 -14 18 11 12 -11 -10 -40 -17 -21 -19 -29
-9 -35 7 -5 19 -6 27 -3 7 3 13 0 13 -6 0 -18 -36 -12 -55 9 -20 22 -44 28
-26 6 9 -10 9 -16 1 -21 -6 -4 -9 -13 -6 -21 4 -10 0 -14 -12 -12 -11 2 -17
-4 -17 -17 -1 -29 -15 -47 -31 -41 -8 3 -23 -3 -33 -13 -12 -12 -23 -16 -32
-10 -8 4 -24 6 -36 3 -14 -4 -32 2 -49 15 -19 15 -30 18 -34 10 -5 -7 -15 -1
-29 17 -18 23 -24 26 -31 14 -8 -12 -10 -12 -10 -2 0 8 -10 23 -22 34 -13 11
-16 16 -8 12 8 -4 -7 12 -35 37 -27 24 -68 63 -90 86 l-41 41 -21 -24 c-12
-13 -31 -24 -43 -24 -22 0 -100 -39 -100 -49 0 -3 -19 -6 -42 -6 -85 -1 -138
-15 -149 -38 -6 -13 -46 -40 -100 -66 -49 -24 -108 -62 -132 -83 -23 -21 -59
-48 -79 -59 -21 -10 -45 -31 -55 -45 -9 -14 -26 -30 -37 -34 -12 -5 244 -9
575 -9 565 -1 597 0 612 17 24 26 21 39 -3 17 -18 -17 -20 -17 -37 1 -17 17
-17 18 0 11 10 -4 27 -2 38 3 12 7 25 7 37 1 10 -6 24 -6 34 0 25 14 77 -8 73
-32 -4 -18 6 -19 316 -19 l319 0 0 401 0 401 -57 -7 c-32 -4 -87 -18 -124 -31
-36 -13 -75 -24 -86 -24 -18 0 -21 -9 -26 -80 -3 -43 -1 -96 4 -117 11 -49 11
-124 0 -142 -11 -17 -40 106 -31 132 5 16 0 82 -13 167 -2 14 -9 34 -15 46 -6
11 -7 26 -3 33 7 11 9 11 13 0 3 -8 4 1 3 19 -1 18 -5 35 -8 38 -3 3 -3 13 -1
22 5 14 4 14 -6 0 -18 -30 -28 -20 -27 26 0 25 -6 53 -14 62 -9 11 -9 15 -2
10 10 -5 11 -1 4 17 -6 14 -7 27 -5 30 3 3 -4 8 -15 12 -11 3 -20 14 -20 23 0
9 -3 29 -7 44 -3 15 -4 38 0 52 6 25 84 106 102 106 7 0 12 -20 13 -50 0 -28
6 -60 12 -71 6 -11 8 -26 5 -34 -2 -7 4 -30 15 -50 14 -25 17 -41 10 -49 -5
-6 -11 -47 -13 -90 -2 -63 1 -79 14 -87 11 -6 23 -3 41 11 27 22 55 82 34 74
-14 -5 -41 51 -32 66 4 6 16 8 27 4 18 -5 20 -3 15 32 -2 22 -7 46 -10 54 -15
41 -17 71 -6 64 9 -5 10 8 5 52 -10 82 -13 89 -42 103 -19 8 -30 8 -47 -1 -12
-6 -37 -11 -55 -9 -24 2 -41 -4 -58 -20 -13 -12 -27 -20 -30 -16 -3 3 3 13 14
23 17 14 19 22 11 37 -10 17 -18 18 -80 12 -56 -6 -74 -4 -95 10 -14 9 -28 14
-31 11 -4 -3 -12 2 -19 13 -15 20 -78 21 -97 2 -6 -6 -21 -11 -32 -11 -12 0
-30 -8 -41 -17 -10 -10 -32 -25 -49 -33 -16 -8 -39 -23 -49 -32 -11 -10 -30
-18 -43 -18 -17 0 -21 -4 -16 -17 5 -13 2 -15 -11 -10 -9 4 -15 3 -11 -2 11
-19 -58 -42 -110 -36 -112 13 -141 13 -173 -1 -19 -7 -38 -12 -42 -9 -5 3 -11
1 -15 -4 -3 -6 -12 -8 -19 -5 -15 6 -45 -20 -47 -39 -4 -41 -17 87 -18 181 -2
110 -1 113 25 137 15 14 23 25 18 25 -5 0 9 11 31 24 30 18 43 22 53 13 8 -6
16 -7 20 -1 10 14 35 11 52 -6 8 -9 12 -11 8 -6 -13 17 -9 29 5 18 10 -9 19
-7 36 4 12 9 25 13 28 10 4 -3 17 4 30 16 25 23 53 32 53 17 0 -5 -9 -14 -20
-21 -24 -15 -25 -24 -6 -31 9 -4 13 -1 11 6 -6 16 61 58 80 51 8 -4 15 -10 15
-14 0 -4 7 -10 15 -14 10 -4 14 1 12 17 -1 17 3 22 20 21 12 0 20 3 17 7 -9
15 66 40 86 29 9 -5 20 -6 24 -3 7 8 36 -29 30 -38 -2 -4 5 -5 16 -2 12 3 20
0 20 -6 0 -7 3 -10 8 -8 4 3 15 -10 24 -29 10 -19 13 -34 8 -34 -6 0 -10 5
-10 10 0 18 -17 10 -34 -15 -12 -18 -13 -23 -2 -19 7 3 20 -1 27 -8 8 -7 26
-14 41 -14 14 -1 40 -9 57 -17 17 -9 31 -11 31 -6 0 5 -5 9 -11 9 -5 0 -7 5
-4 10 4 6 1 17 -5 25 -6 8 -9 19 -5 25 10 16 31 -4 39 -36 4 -14 11 -22 15
-19 5 3 16 -1 24 -9 8 -8 18 -12 21 -9 4 4 18 -5 32 -21 14 -15 29 -25 32 -22
3 4 -4 15 -16 26 -25 24 -27 32 -9 61 10 18 9 23 -1 26 -10 4 -8 9 5 19 17 12
17 13 1 14 -11 0 -15 5 -12 15 4 10 13 13 26 9 16 -5 18 -3 9 13 -5 10 -13 35
-16 56 -4 24 -10 35 -17 31 -7 -4 -8 -3 -4 4 4 6 13 9 21 6 8 -4 12 -10 9 -15
-3 -5 2 -6 10 -3 18 7 22 24 6 24 -5 0 -6 8 -3 18 6 14 4 15 -9 4 -13 -10 -16
-9 -21 10 -4 12 -1 25 4 29 8 5 8 9 0 13 -6 4 -11 19 -11 34 0 17 -8 32 -21
41 -16 9 -18 15 -10 21 10 5 9 11 -3 22 -8 9 -12 19 -8 23 4 5 1 5 -6 1 -7 -5
-11 -15 -8 -23 5 -11 1 -13 -17 -7 -12 4 -26 12 -30 18 -6 8 -10 7 -14 -2 -2
-6 -9 -9 -15 -6 -6 4 -8 -1 -6 -12 2 -11 10 -18 16 -17 7 2 12 -2 12 -7 0 -5
-5 -10 -11 -10 -6 0 -8 -9 -4 -22 7 -23 7 -23 -8 -3 -8 11 -16 29 -18 40 -3
12 -14 21 -27 23 -24 4 -29 -7 -11 -25 7 -7 3 -12 -14 -15 -21 -4 -23 -1 -19
20 4 20 2 24 -12 19 -9 -4 -16 -2 -16 4 0 6 -6 9 -12 6 -7 -2 -22 -1 -33 4
-16 6 -17 8 -3 8 9 1 20 6 23 11 4 7 -5 9 -27 5 -26 -4 -29 -3 -15 5 18 12 24
40 7 40 -5 0 -10 11 -10 25 0 16 6 25 15 25 8 0 15 -4 15 -10 0 -5 5 -10 11
-10 6 0 9 12 7 28 -2 20 -9 28 -27 30 -13 2 -28 -2 -32 -10 -7 -10 -9 -10 -9
0 0 11 -19 18 -21 7z m-99 -45 c8 -5 11 -10 5 -10 -5 0 -17 5 -25 10 -8 5 -10
10 -5 10 6 0 17 -5 25 -10z m-35 -19 c-3 -5 6 -18 20 -29 13 -11 21 -23 17
-26 -4 -4 5 -5 21 -1 21 6 27 4 27 -9 0 -9 5 -16 11 -16 6 0 9 7 6 14 -4 10
-1 13 9 9 7 -3 14 -9 14 -14 0 -5 9 -9 20 -9 11 0 20 -7 20 -16 0 -11 6 -14
20 -9 28 9 26 -14 -2 -24 -15 -5 -30 -4 -43 4 -11 7 -32 15 -47 19 -16 4 -28
13 -28 22 0 8 -4 13 -8 10 -4 -2 -21 10 -38 27 -42 44 -49 57 -29 57 9 0 14
-4 10 -9z m51 -29 c-4 -3 -14 2 -24 12 -16 18 -16 18 6 6 13 -6 21 -14 18 -18z
m-267 15 c-2 -1 -11 -8 -21 -15 -12 -10 -18 -10 -24 -1 -4 7 -3 9 4 5 6 -3 13
-2 17 4 3 5 11 10 17 10 6 0 9 -1 7 -3z m186 -37 c3 -5 1 -10 -4 -10 -6 0 -11
5 -11 10 0 6 2 10 4 10 3 0 8 -4 11 -10z m-251 -46 c9 -24 7 -27 -9 -10 -17
17 -19 26 -6 26 5 0 12 -7 15 -16z m622 -79 c-3 -9 1 -15 11 -15 13 0 13 -3 3
-15 -17 -21 -34 -4 -25 24 3 12 9 21 12 21 3 0 3 -7 -1 -15z m131 -35 c-3 -11
-1 -20 5 -20 5 0 6 -5 3 -10 -9 -15 -38 18 -31 35 8 23 29 18 23 -5z m-247 6
c0 -2 -7 -7 -16 -10 -8 -3 -12 -2 -9 4 6 10 25 14 25 6z m204 -12 c3 -8 2 -12
-4 -9 -6 3 -10 10 -10 16 0 14 7 11 14 -7z m9 -50 c-4 -11 -9 -12 -19 -3 -17
14 -9 30 11 23 7 -3 11 -12 8 -20z m-89 1 c-4 -8 -8 -15 -10 -15 -2 0 -4 7 -4
15 0 8 4 15 10 15 5 0 7 -7 4 -15z m136 -20 c0 -12 -19 -12 -23 0 -4 9 -1 12
9 8 7 -3 14 -7 14 -8z m-957 -462 c3 -34 11 -71 17 -82 9 -17 6 -23 -18 -35
l-29 -15 5 49 c3 35 0 57 -11 74 -14 21 -14 26 -2 36 17 14 20 70 4 70 -5 0
-7 5 -3 12 12 19 31 -38 37 -109z m952 66 c11 -17 2 -18 -19 -3 -17 12 -17 14
-4 14 9 0 20 -5 23 -11z m-225 -19 c0 -5 -4 -10 -10 -10 -5 0 -10 5 -10 10 0
6 5 10 10 10 6 0 10 -4 10 -10z m-110 -51 c0 -11 -7 -22 -15 -25 -8 -4 -15
-11 -15 -16 0 -6 7 -7 16 -4 14 5 15 4 5 -8 -9 -11 -6 -20 16 -44 29 -30 69
-47 78 -32 3 5 19 4 37 0 17 -5 35 -7 41 -3 6 3 7 1 4 -4 -4 -7 3 -10 17 -9
13 0 24 6 23 11 -1 6 4 9 11 8 6 -2 12 2 12 7 0 6 5 10 10 10 15 0 12 -27 -5
-44 -19 -19 -19 -36 1 -36 23 0 55 20 49 30 -3 5 -1 11 5 15 5 3 10 0 10 -7 1
-8 6 -6 15 6 8 11 15 15 15 9 0 -22 -54 -55 -129 -78 -16 -5 -21 -4 -17 4 4 6
0 11 -8 11 -9 0 -16 -6 -16 -14 0 -17 -75 -30 -123 -21 -46 9 -93 59 -122 130
-28 69 -23 85 33 114 41 21 52 19 52 -10z m85 -39 c3 -5 -3 -10 -15 -10 -12 0
-18 5 -15 10 3 6 10 10 15 10 5 0 12 -4 15 -10z m142 -35 c-5 -16 -37 -18 -37
-3 0 8 9 14 20 14 11 0 19 -5 17 -11z m-503 -17 c26 -39 31 -122 11 -173 -20
-54 -59 -78 -152 -94 -90 -17 -128 -1 -169 69 -18 30 -35 65 -39 78 -5 19 -3
22 19 22 14 0 28 5 31 10 4 6 11 7 17 4 7 -5 9 0 6 13 -13 50 75 89 204 92 49
1 60 -2 72 -21z m416 -8 c0 -5 -8 -10 -17 -10 -10 0 -29 -3 -43 -6 -24 -5 -24
-5 -6 10 22 18 66 22 66 6z m-720 -51 c0 -5 -9 -9 -20 -9 -22 0 -27 16 -7 23
15 5 27 -1 27 -14z m988 -34 c-3 -3 -9 2 -12 12 -6 14 -5 15 5 6 7 -7 10 -15
7 -18z m-1103 -52 c-8 -20 -15 -37 -15 -39 0 -2 -7 -4 -16 -4 -9 0 -13 6 -10
13 2 6 10 29 17 49 9 30 15 35 25 27 11 -9 11 -17 -1 -46z m81 -65 c8 -16 11
-28 6 -28 -5 0 -14 11 -20 25 -7 15 -20 25 -32 25 -23 0 -24 1 -8 34 l11 26
14 -28 c8 -15 21 -39 29 -54z m664 30 c0 -5 -10 -6 -22 -3 -36 11 -41 22 -8
17 16 -2 30 -9 30 -14z m75 -668 c3 -5 1 -10 -4 -10 -6 0 -11 5 -11 10 0 6 2
10 4 10 3 0 8 -4 11 -10z m-232 -89 c23 -9 27 -15 21 -33 -6 -20 -5 -21 10 -9
13 11 16 11 16 -1 0 -7 9 -31 19 -51 17 -33 17 -36 3 -26 -29 22 -92 92 -92
103 0 5 -12 24 -27 40 -25 27 -25 28 -3 9 14 -12 38 -26 53 -32z m184 -17 c-3
-3 -12 -4 -19 -1 -8 3 -5 6 6 6 11 1 17 -2 13 -5z m70 -18 c-4 -9 -13 -13 -22
-10 -11 5 -14 2 -9 -12 5 -16 4 -16 -5 -4 -16 23 -13 33 9 27 14 -3 20 0 20
11 0 8 3 13 6 9 4 -3 4 -13 1 -21z m-137 4 c5 8 9 5 13 -9 7 -27 -10 -27 -43
0 -25 20 -25 20 -1 9 18 -9 25 -9 31 0z m73 -30 c3 -11 1 -18 -4 -14 -5 3 -9
12 -9 20 0 20 7 17 13 -6z"/>
<path d="M1317 1009 c7 -7 15 -10 18 -7 3 3 -2 9 -12 12 -14 6 -15 5 -6 -5z"/>
<path d="M1380 980 c0 -5 5 -10 11 -10 5 0 7 5 4 10 -3 6 -8 10 -11 10 -2 0
-4 -4 -4 -10z"/>
<path d="M760 1070 c-8 -5 -10 -10 -5 -10 6 0 17 5 25 10 8 5 11 10 5 10 -5 0
-17 -5 -25 -10z"/>
<path d="M850 1075 c0 -7 30 -13 34 -7 3 4 -4 9 -15 9 -10 1 -19 0 -19 -2z"/>
<path d="M811 1053 c-46 -6 -107 -46 -126 -83 -9 -16 -12 -30 -7 -30 12 0 47
40 36 40 -5 0 -1 5 9 11 14 8 23 7 36 -6 17 -15 21 -15 53 1 29 13 34 20 30
42 -4 19 -2 23 8 17 9 -5 11 -4 6 3 -4 7 -8 11 -9 10 -1 0 -17 -3 -36 -5z
m-14 -50 c3 -7 -4 -9 -16 -6 -12 3 -18 9 -15 15 7 11 26 6 31 -9z"/>
<path d="M705 1040 c-3 -6 1 -7 9 -4 18 7 21 14 7 14 -6 0 -13 -4 -16 -10z"/>
<path d="M738 963 c7 -3 16 -2 19 1 4 3 -2 6 -13 5 -11 0 -14 -3 -6 -6z"/>
<path d="M906 1957 c5 -28 11 -32 29 -17 23 19 18 38 -9 38 -19 0 -24 -5 -20
-21z"/>
<path d="M1295 1971 c-3 -6 -3 -11 2 -11 4 0 1 -5 -7 -10 -10 -7 -11 -10 -2
-10 7 0 15 7 19 15 7 19 -2 31 -12 16z"/>
<path d="M830 1952 c0 -4 10 -13 21 -20 18 -12 24 -11 37 2 11 11 12 16 4 16
-7 0 -12 -6 -12 -12 -1 -8 -6 -6 -14 5 -13 17 -36 23 -36 9z"/>
<path d="M1308 1935 c-9 -20 -8 -28 5 -43 10 -10 17 -25 17 -32 0 -9 7 -6 20
8 25 27 25 37 -1 56 -12 8 -18 19 -14 25 3 6 1 11 -5 11 -6 0 -16 -11 -22 -25z"/>
<path d="M1240 1901 c0 -13 12 -20 26 -14 20 8 17 19 -6 20 -11 1 -20 -2 -20
-6z"/>
<path d="M858 1863 c7 -3 16 -2 19 1 4 3 -2 6 -13 5 -11 0 -14 -3 -6 -6z"/>
<path d="M1556 1853 c-6 -14 -5 -15 5 -6 7 7 10 15 7 18 -3 3 -9 -2 -12 -12z"/>
<path d="M1560 1826 c0 -2 8 -10 18 -17 15 -13 16 -12 3 4 -13 16 -21 21 -21
13z"/>
<path d="M1199 1463 c-13 -16 -12 -17 4 -4 9 7 17 15 17 17 0 8 -8 3 -21 -13z"/>
<path d="M100 1172 c6 -13 14 -21 18 -18 3 4 -2 14 -12 24 -18 16 -18 16 -6
-6z"/>
<path d="M155 1150 c3 -5 11 -10 16 -10 6 0 7 5 4 10 -3 6 -11 10 -16 10 -6 0
-7 -4 -4 -10z"/>
<path d="M360 1140 c0 -5 5 -10 10 -10 6 0 10 5 10 10 0 6 -4 10 -10 10 -5 0
-10 -4 -10 -10z"/>
<path d="M235 1120 c-3 -6 1 -7 9 -4 18 7 21 14 7 14 -6 0 -13 -4 -16 -10z"/>
<path d="M10 1110 c-8 -5 -11 -10 -5 -10 6 0 17 5 25 10 8 5 11 10 5 10 -5 0
-17 -5 -25 -10z"/>
<path d="M280 1100 c6 -11 15 -20 21 -20 6 0 6 7 -1 20 -6 11 -15 20 -21 20
-6 0 -6 -7 1 -20z"/>
<path d="M335 1070 c-3 -6 1 -7 9 -4 9 3 16 1 16 -5 0 -6 -5 -11 -11 -11 -5 0
-7 -5 -4 -11 5 -6 12 -4 20 8 10 13 10 20 2 25 -16 10 -25 10 -32 -2z"/>
<path d="M1820 1065 c0 -5 4 -16 9 -23 6 -10 11 -9 22 4 11 14 11 16 0 10 -8
-5 -17 -3 -22 5 -5 8 -9 10 -9 4z"/>
<path d="M110 1039 c0 -5 5 -7 10 -4 6 3 10 8 10 11 0 2 -4 4 -10 4 -5 0 -10
-5 -10 -11z"/>
<path d="M1830 999 c0 -5 5 -7 10 -4 6 3 10 8 10 11 0 2 -4 4 -10 4 -5 0 -10
-5 -10 -11z"/>
<path d="M1356 895 c4 -8 11 -15 16 -15 6 0 5 6 -2 15 -7 8 -14 15 -16 15 -2
0 -1 -7 2 -15z"/>
<path d="M1450 880 c0 -5 5 -10 10 -10 6 0 10 5 10 10 0 6 -4 10 -10 10 -5 0
-10 -4 -10 -10z"/>
<path d="M1115 708 l-20 -21 25 6 c14 4 31 7 38 7 6 0 12 7 12 15 0 21 -32 17
-55 -7z"/>
<path d="M1191 692 c-8 -16 -7 -25 9 -44 11 -12 19 -18 20 -12 0 6 -7 17 -15
24 -12 10 -13 16 -4 27 7 7 9 16 6 19 -3 3 -10 -3 -16 -14z"/>
<path d="M1137 666 c-4 -11 -1 -13 10 -9 12 5 14 1 8 -15 -3 -12 -2 -22 3 -22
13 0 9 53 -4 57 -6 2 -14 -3 -17 -11z"/>
<path d="M970 650 c0 -5 5 -10 11 -10 5 0 7 5 4 10 -3 6 -8 10 -11 10 -2 0 -4
-4 -4 -10z"/>
<path d="M1275 640 c-3 -5 -3 -14 0 -20 3 -5 1 -10 -5 -10 -7 0 -10 -6 -8 -12
6 -17 39 -17 61 1 20 16 22 9 6 -22 -11 -22 -11 -22 10 1 25 26 37 28 44 8 3
-8 14 -19 24 -25 15 -8 19 -6 20 11 2 16 -1 17 -12 8 -12 -10 -16 -9 -21 6 -4
11 -16 27 -28 36 -21 18 -57 24 -55 11 3 -20 -2 -24 -16 -13 -13 11 -13 15 -3
21 9 6 9 9 1 9 -6 0 -15 -4 -18 -10z"/>
<path d="M1360 641 c0 -5 7 -11 15 -15 8 -3 15 -1 15 3 0 5 -7 11 -15 15 -8 3
-15 1 -15 -3z"/>
<path d="M1186 622 c-3 -6 -1 -14 5 -17 15 -10 25 3 12 16 -7 7 -13 7 -17 1z"/>
<path d="M1230 620 c0 -5 5 -10 11 -10 5 0 7 5 4 10 -3 6 -8 10 -11 10 -2 0
-4 -4 -4 -10z"/>
<path d="M930 570 c-9 -6 -10 -10 -3 -10 6 0 15 5 18 10 8 12 4 12 -15 0z"/>
<path d="M1085 570 c-3 -5 -1 -10 4 -10 6 0 11 5 11 10 0 6 -2 10 -4 10 -3 0
-8 -4 -11 -10z"/>
<path d="M155 560 c3 -5 8 -10 11 -10 2 0 4 5 4 10 0 6 -5 10 -11 10 -5 0 -7
-4 -4 -10z"/>
<path d="M1346 554 c-12 -11 -34 -15 -83 -14 -91 2 -93 2 -93 -11 0 -8 6 -7
17 2 14 12 16 12 11 -1 -5 -17 -78 -27 -78 -11 0 5 6 11 13 14 6 2 0 4 -14 4
-21 0 -25 -3 -22 -18 3 -11 1 -19 -3 -20 -113 -6 -151 -12 -159 -22 -6 -6 -9
-11 -6 -10 2 1 11 -2 21 -7 10 -6 47 -4 98 5 91 16 139 19 194 12 21 -2 35 0
32 4 -5 9 14 13 51 11 11 0 14 2 8 4 -18 8 -16 27 1 21 16 -6 40 16 29 27 -4
4 -1 11 7 16 9 6 10 10 3 10 -6 0 -19 -7 -27 -16z"/>
<path d="M1050 411 c0 -10 19 -25 25 -20 1 2 -3 10 -11 17 -8 7 -14 8 -14 3z"/>
<path d="M1130 410 c0 -5 5 -10 10 -10 6 0 10 5 10 10 0 6 -4 10 -10 10 -5 0
-10 -4 -10 -10z"/>
<path d="M1160 400 c0 -5 5 -10 10 -10 6 0 10 5 10 10 0 6 -4 10 -10 10 -5 0
-10 -4 -10 -10z"/>
<path d="M1215 400 c3 -5 8 -10 11 -10 2 0 4 5 4 10 0 6 -5 10 -11 10 -5 0 -7
-4 -4 -10z"/>
<path d="M1122 327 c-8 -10 -2 -12 29 -9 21 2 39 8 39 13 0 14 -56 11 -68 -4z"/>
<path d="M1090 259 c0 -5 5 -7 10 -4 6 3 10 8 10 11 0 2 -4 4 -10 4 -5 0 -10
-5 -10 -11z"/>
<path d="M1235 240 c-3 -6 1 -7 9 -4 18 7 21 14 7 14 -6 0 -13 -4 -16 -10z"/>
<path d="M1095 229 c-4 -6 -5 -12 -2 -15 2 -3 7 2 10 11 7 17 1 20 -8 4z"/>
<path d="M1240 210 c0 -5 5 -10 10 -10 6 0 10 5 10 10 0 6 -4 10 -10 10 -5 0
-10 -4 -10 -10z"/>
<path d="M1313 27 c2 -24 3 -24 20 -10 19 18 23 28 6 17 -6 -3 -15 -1 -19 6
-5 8 -8 4 -7 -13z"/>
</g>
</svg>
